<?xml version="1.0" standalone="no"?>
<!DOCTYPE svg PUBLIC "-//W3C//DTD SVG 20010904//EN"
 "http://www.w3.org/TR/2001/REC-SVG-20010904/DTD/svg10.dtd">
<svg version="1.0" xmlns="http://www.w3.org/2000/svg"
 width="2000.000000pt" height="1085.000000pt" viewBox="0 0 2000.000000 1085.000000"
 preserveAspectRatio="xMidYMid meet">
<metadata>
Created by potrace 1.16, written by Peter Selinger 2001-2019
</metadata>
<g transform="translate(0.000000,1085.000000) scale(0.100000,-0.100000)"
fill="#000000" stroke="none">
<path d="M0 5425 l0 -5425 10000 0 10000 0 0 5425 0 5425 -10000 0 -10000 0 0
-5425z m10622 3680 c42 -9 90 -27 113 -43 l40 -27 -180 -6 c-99 -3 -196 -10
-216 -16 -75 -21 -305 -143 -369 -195 -136 -112 -255 -296 -315 -488 -48 -154
-67 -296 -68 -500 0 -265 33 -447 118 -643 70 -162 213 -337 338 -414 l57 -36
0 -66 c0 -126 -51 -282 -128 -393 -44 -64 -158 -169 -237 -220 -39 -25 -115
-66 -170 -93 -103 -49 -121 -55 -410 -154 -199 -68 -234 -84 -297 -140 -48
-43 -118 -163 -118 -205 0 -41 -11 -45 -130 -47 -133 -2 -127 -7 -110 104 20
129 78 221 179 287 41 25 371 146 371 135 0 -6 174 55 180 63 3 4 48 27 100
52 196 93 358 227 438 362 60 101 102 253 102 370 0 44 -2 47 -45 72 -220 130
-389 410 -451 751 -25 136 -26 479 -1 610 77 417 264 681 580 817 155 67 202
76 389 77 114 1 190 -4 240 -14z m474 -174 c-3 -4 27 -16 67 -26 39 -9 98 -28
131 -41 32 -13 64 -21 70 -17 6 3 8 3 4 -2 -10 -10 50 -48 63 -39 5 3 8 0 7
-8 -2 -7 5 -13 14 -13 9 0 20 -4 25 -9 5 -5 2 -6 -7 -2 -8 4 -6 1 4 -8 10 -8
22 -13 26 -11 4 3 14 -3 21 -13 13 -16 12 -16 -6 -2 -11 8 9 -14 45 -50 36
-35 68 -64 73 -64 4 -1 7 -5 8 -11 2 -23 21 -45 32 -39 7 4 9 4 5 -1 -10 -11
11 -47 22 -40 6 4 7 -1 3 -11 -4 -11 -2 -15 4 -11 6 4 10 -1 9 -11 0 -9 4 -16
11 -15 8 2 10 -4 6 -14 -5 -12 -3 -14 7 -8 8 5 11 4 6 -3 -4 -6 5 -35 20 -63
74 -146 129 -390 143 -633 9 -153 6 -185 -43 -374 -9 -34 -14 -68 -10 -75 4
-7 4 -9 -1 -5 -8 7 -96 -232 -99 -269 0 -12 -3 -19 -5 -17 -8 7 -90 -169 -84
-179 3 -6 1 -7 -5 -3 -11 7 -17 -6 -13 -27 1 -5 -3 -6 -9 -2 -9 6 -14 -8 -11
-28 1 -5 -3 -6 -9 -2 -5 3 -11 1 -11 -4 -1 -6 -2 -17 -3 -23 0 -7 -7 -13 -13
-13 -7 0 -20 -10 -28 -22 -9 -13 -13 -23 -9 -23 4 0 -1 -9 -11 -20 -10 -11
-21 -18 -24 -16 -4 3 -18 -5 -31 -16 -14 -11 -18 -16 -10 -12 9 4 12 3 7 -2
-5 -5 -13 -10 -18 -10 -5 -1 -14 -2 -20 -3 -5 0 -7 -5 -4 -11 4 -6 -1 -7 -11
-3 -16 6 -17 -1 -11 -86 9 -127 47 -268 68 -255 5 3 6 -3 2 -12 -4 -11 -2 -15
4 -11 6 4 10 -1 9 -11 0 -9 4 -16 11 -15 7 2 10 -3 7 -11 -3 -8 0 -17 7 -22 8
-5 10 -3 4 6 -5 8 -4 11 3 6 6 -4 9 -13 6 -20 -7 -17 154 -169 172 -162 7 3
16 0 20 -6 4 -7 3 -8 -4 -4 -7 4 -12 4 -12 1 0 -12 69 -34 171 -55 96 -19 129
-35 129 -62 0 -4 -6 -5 -12 -3 -7 2 -24 7 -38 9 -14 3 -36 8 -50 11 -52 13 6
-14 109 -49 138 -48 266 -80 447 -112 82 -14 164 -33 184 -42 19 -9 42 -16 50
-16 8 -1 15 -6 15 -11 0 -15 44 -60 58 -60 7 0 12 -7 13 -15 0 -8 10 -37 23
-65 12 -27 29 -79 37 -114 18 -74 37 -332 26 -343 -4 -4 -866 -8 -1916 -8
-1571 -1 -1910 1 -1917 12 -14 23 -22 118 -17 210 5 77 11 100 42 163 39 78
98 140 171 177 21 11 116 47 210 79 289 99 307 105 410 154 55 27 131 68 170
93 79 51 193 156 237 220 77 111 128 267 128 393 l0 66 -57 36 c-125 77 -268
252 -338 414 -85 196 -118 378 -118 643 1 204 20 346 68 500 60 192 179 376
315 488 64 52 294 174 369 195 20 6 122 13 226 17 105 3 200 7 213 8 13 1 21
-2 18 -7z m-3669 -1062 c31 -11 78 -53 96 -84 8 -13 14 -115 17 -305 l5 -285
285 -5 c190 -3 292 -9 305 -17 31 -18 73 -65 84 -96 25 -64 9 -141 -37 -190
-48 -51 -51 -52 -352 -57 l-285 -5 -5 -285 c-3 -190 -9 -292 -17 -305 -18 -31
-65 -73 -96 -84 -64 -25 -141 -9 -190 37 -51 48 -52 51 -57 352 l-5 285 -285
5 c-190 3 -292 9 -305 17 -31 18 -73 65 -84 96 -25 64 -9 141 37 190 48 51 51
52 352 57 l285 5 5 285 c3 190 9 292 17 305 17 30 65 72 93 84 34 13 102 13
137 0z m-2068 -3394 c7 -4 11 -75 11 -203 l0 -197 -97 0 c-166 0 -202 -38
-211 -226 l-5 -109 147 0 146 0 0 -200 0 -200 -145 0 -145 0 0 -715 0 -715
-225 0 -225 0 0 715 0 715 -95 0 -95 0 0 200 0 200 93 0 94 0 6 138 c11 250
43 354 144 463 113 122 202 151 435 145 86 -2 162 -7 167 -11z m2181 -1325 l0
-1240 -235 0 -235 0 0 1240 0 1240 235 0 235 0 0 -1240z m800 0 l0 -1240 -235
0 -235 0 0 1240 0 1240 235 0 235 0 0 -1240z m-2047 614 c253 -57 406 -239
478 -572 15 -73 22 -148 26 -302 9 -321 -23 -516 -113 -700 -109 -221 -294
-330 -556 -330 -363 1 -576 203 -654 620 -26 135 -26 544 -1 677 66 352 226
551 488 607 88 20 245 19 332 0z m3181 -4 c246 -63 385 -235 457 -568 29 -138
38 -478 15 -648 -61 -465 -273 -684 -661 -684 -203 0 -320 45 -445 170 -157
156 -219 356 -227 732 -8 317 23 512 109 688 32 66 59 102 117 160 86 86 148
122 253 150 102 27 278 27 382 0z m3675 1 c34 -11 77 -31 96 -45 44 -34 92
-103 112 -162 l16 -46 29 54 c40 74 112 144 186 180 54 27 77 32 161 36 180 8
299 -40 376 -152 77 -115 85 -212 85 -1053 l0 -663 -235 0 -234 0 -3 683 c-3
768 -1 743 -75 773 -70 30 -168 1 -196 -58 -32 -67 -37 -183 -37 -794 l0 -604
-235 0 -234 0 -3 683 c-3 619 -5 686 -20 720 -30 66 -117 86 -198 45 -52 -27
-75 -67 -89 -158 -7 -40 -11 -302 -11 -677 l0 -613 -235 0 -235 0 0 915 0 915
220 0 220 0 0 -117 0 -118 31 55 c55 101 150 180 248 206 71 19 190 17 260 -5z
m2190 -11 c83 -29 199 -108 256 -173 122 -140 188 -365 202 -689 l6 -148 -436
0 -437 0 0 -102 c1 -242 41 -352 145 -399 141 -65 279 44 302 239 6 50 7 52
37 51 78 -1 376 -26 382 -31 11 -11 -43 -203 -78 -279 -119 -254 -315 -368
-613 -356 -184 8 -303 57 -411 169 -167 173 -244 414 -244 763 0 261 35 449
114 610 93 190 237 315 414 360 87 22 279 14 361 -15z m-4859 -17 c0 -7 151
-872 174 -998 7 -38 15 -63 19 -55 5 14 178 1036 177 1053 0 4 104 7 230 7
127 0 230 -3 231 -7 5 -86 147 -1062 152 -1048 4 11 52 245 107 520 56 275
103 508 106 518 5 15 23 17 190 17 l184 0 -7 -27 c-3 -16 -97 -426 -208 -913
l-201 -885 -199 0 -198 0 -98 568 c-53 312 -101 584 -106 604 -7 30 -26 -67
-106 -553 -54 -324 -101 -597 -103 -606 -5 -16 -23 -18 -197 -18 l-192 0 -117
518 c-65 284 -156 688 -203 897 -48 209 -88 388 -91 398 -5 16 10 17 225 17
127 0 231 -3 231 -7z"/>
<path d="M6061 3404 c-42 -22 -78 -76 -96 -145 -25 -92 -38 -330 -32 -544 10
-295 31 -400 92 -454 66 -58 161 -50 216 19 60 74 85 290 76 635 -9 310 -35
423 -108 478 -37 27 -106 32 -148 11z"/>
<path d="M9221 3404 c-42 -22 -78 -76 -96 -145 -36 -135 -45 -624 -15 -809 24
-144 67 -211 146 -226 91 -17 162 41 188 153 60 265 41 842 -32 967 -39 66
-125 93 -191 60z"/>
<path d="M15080 3424 c-88 -38 -127 -123 -145 -316 l-7 -68 218 0 217 0 -6
103 c-8 168 -58 260 -154 286 -51 14 -81 13 -123 -5z"/>
</g>
</svg>
