<?xml version="1.0" standalone="no"?>
<!DOCTYPE svg PUBLIC "-//W3C//DTD SVG 20010904//EN"
 "http://www.w3.org/TR/2001/REC-SVG-20010904/DTD/svg10.dtd">
<svg version="1.0" xmlns="http://www.w3.org/2000/svg"
 width="2000.000000pt" height="1280.000000pt" viewBox="0 0 2000.000000 1280.000000"
 preserveAspectRatio="xMidYMid meet">
<metadata>
Created by potrace 1.16, written by Peter Selinger 2001-2019
</metadata>
<g transform="translate(0.000000,1280.000000) scale(0.100000,-0.100000)"
fill="#000000" stroke="none">
<path d="M0 6400 l0 -6400 10000 0 10000 0 0 6400 0 6400 -10000 0 -10000 0 0
-6400z m2562 2980 l38 0 0 -319 0 -319 -117 1 c-192 2 -274 -36 -333 -156 -37
-76 -50 -173 -50 -394 l0 -153 250 0 250 0 0 -320 0 -320 -250 0 -250 0 0
-1485 0 -1485 -250 0 -250 0 0 853 c0 468 0 1137 0 1485 l0 632 -170 0 -170 0
2 413 c1 226 4 370 5 320 l4 -93 163 0 163 0 6 238 c8 351 47 552 148 760 37
77 64 117 108 161 126 126 357 199 590 185 41 -2 91 -4 113 -4z m3329 -439 c1
-196 0 -717 -1 -1157 -2 -770 -1 -802 17 -813 17 -10 17 -10 1 -11 -17 0 -18
-67 -18 -1265 l0 -1265 -255 0 -255 0 0 1340 0 1341 -22 9 -23 9 23 0 22 1 0
1085 0 1085 228 2 c125 2 239 1 255 -1 l27 -3 1 -357z m1141 -923 c1 -706 0
-1303 -1 -1327 -2 -28 2 -47 11 -52 10 -7 10 -9 0 -9 -10 0 -12 -220 -12
-1096 0 -603 -1 -1098 -2 -1099 -2 -2 -122 -5 -268 -7 -146 -3 -259 -3 -252 0
10 3 12 244 12 1180 0 648 0 1743 0 2435 l0 1257 255 0 255 0 2 -1282z m-2937
58 c112 -38 205 -96 301 -188 188 -181 343 -474 428 -813 117 -463 124 -1080
19 -1580 -69 -330 -208 -629 -391 -841 -189 -221 -443 -326 -708 -295 -315 37
-549 246 -717 641 -93 220 -169 497 -201 740 -88 655 -9 1294 219 1757 126
254 280 431 455 522 142 73 222 91 390 87 104 -3 138 -8 205 -30z m4710 0 c44
-15 112 -46 150 -68 93 -55 245 -208 320 -323 33 -49 64 -93 70 -97 5 -4 7 -8
3 -8 -4 0 17 -51 47 -112 111 -234 183 -515 214 -833 17 -178 23 -449 13 -600
-6 -100 -6 -142 2 -147 8 -6 8 -8 0 -8 -6 0 -16 -42 -23 -102 -39 -328 -141
-666 -266 -879 -26 -45 -35 -69 -31 -88 5 -22 5 -23 -5 -8 -9 16 -15 11 -51
-40 -23 -32 -56 -76 -75 -98 l-34 -40 33 -6 33 -6 -38 -2 c-30 -1 -51 -13
-110 -62 -130 -110 -260 -168 -420 -189 -177 -24 -368 21 -514 120 -40 27 -84
51 -96 51 -18 1 -19 2 -4 6 15 4 8 16 -40 66 -132 138 -237 336 -332 629 -169
521 -198 1187 -75 1748 72 327 222 652 392 845 62 72 165 154 242 194 142 73
222 91 390 87 104 -3 138 -8 205 -30z m5905 8 c216 -73 376 -317 464 -708 l22
-99 33 94 c31 89 112 265 164 355 61 108 178 235 271 295 99 65 156 82 282 86
97 2 121 -1 184 -22 96 -33 152 -67 224 -134 150 -143 261 -375 313 -656 16
-81 18 -227 20 -1477 l4 -1388 -270 0 -270 0 -4 1218 c-3 1348 -2 1311 -69
1485 -26 68 -42 93 -93 144 -76 76 -136 98 -254 91 -220 -13 -371 -215 -443
-590 -20 -108 -21 -144 -25 -890 -4 -746 -3 -778 14 -772 17 5 17 5 1 -6 -17
-10 -18 -38 -18 -345 l0 -335 -280 0 -280 0 0 218 c0 119 0 663 0 1208 0 642
-4 1019 -10 1070 -30 222 -96 356 -209 422 -41 24 -56 27 -141 27 -79 0 -103
-4 -142 -23 -153 -76 -286 -294 -343 -563 -41 -190 -45 -310 -45 -1234 0 -489
0 -943 0 -1007 l0 -116 -72 -4 c-40 -2 -82 -8 -93 -12 -16 -6 -17 -6 -5 3 11
8 -36 11 -172 11 l-188 0 0 190 c0 169 -2 190 -17 199 -17 10 -17 10 0 11 13
0 17 8 17 38 -1 35 -2 36 -15 18 -8 -11 -15 -24 -15 -30 0 -5 -3 -7 -6 -4 -3
3 4 24 15 47 21 40 21 51 21 888 0 466 0 1164 0 1551 l0 702 250 0 250 0 1
-372 0 -373 42 120 c137 388 333 619 573 680 79 20 241 14 314 -11z m3688 10
c144 -30 249 -85 364 -192 304 -285 498 -929 498 -1653 l0 -119 -140 0 c-140
0 -141 0 -129 -21 18 -34 -3 -69 -41 -69 -37 0 -59 36 -41 66 9 16 10 14 11
-16 0 -26 3 -31 10 -20 5 8 10 25 10 38 l0 22 -627 0 -626 0 7 -172 c12 -309
48 -503 117 -641 74 -145 158 -239 257 -285 51 -24 68 -27 172 -27 107 0 119
2 175 29 94 46 174 135 234 258 27 57 61 143 75 192 14 49 27 91 29 93 5 4
456 -93 462 -99 9 -8 -55 -249 -91 -346 -126 -337 -319 -580 -549 -692 -252
-122 -538 -114 -770 22 -147 86 -319 292 -420 503 -164 341 -248 839 -231
1365 10 320 45 570 112 803 142 495 386 821 698 934 119 43 302 54 434 27z
m-8523 -44 c-4 -6 78 -11 227 -12 l232 -3 222 -1193 c121 -656 223 -1194 225
-1196 2 -3 70 401 151 897 l146 902 -21 25 -22 25 23 -19 c12 -11 22 -15 23
-10 0 5 21 135 47 289 l47 280 235 0 235 0 102 -613 c79 -479 105 -618 120
-635 17 -20 17 -21 0 -8 -17 13 -18 12 -13 -10 3 -13 47 -276 98 -583 50 -308
93 -556 94 -550 2 5 38 200 80 433 l77 425 -59 54 -59 54 58 -47 c32 -27 59
-46 61 -44 2 2 65 347 141 767 l139 762 219 0 219 0 -6 -27 c-3 -16 -80 -432
-172 -926 l-166 -899 48 -45 c47 -43 47 -44 5 -9 -25 20 -47 36 -51 36 -3 0
-50 -240 -104 -532 -54 -293 -100 -542 -102 -553 -2 -11 -29 -153 -59 -315
-30 -162 -57 -305 -60 -317 l-5 -23 -233 0 -233 0 -68 423 c-38 232 -72 426
-77 431 -4 5 -5 14 -3 20 2 6 -54 370 -126 809 -71 439 -130 803 -130 809 0
46 -22 -77 -114 -647 -109 -677 -125 -773 -131 -815 -2 -14 -40 -247 -84 -518
-45 -271 -81 -497 -81 -502 0 -7 -88 -9 -242 -8 l-242 3 -26 130 -26 130 -49
6 -50 6 48 1 c26 1 47 4 47 6 0 36 -193 982 -201 985 -7 2 -7 6 -2 10 8 5
-422 2247 -434 2260 -2 3 -22 -13 -46 -35 l-42 -39 43 45 c28 31 42 55 42 73
0 24 4 27 34 27 19 0 38 5 41 10 3 6 8 10 11 10 3 0 2 -4 -1 -10z"/>
<path d="M3756 7424 c-162 -52 -269 -205 -341 -491 -106 -424 -95 -1133 25
-1493 65 -198 177 -345 295 -389 79 -30 195 -26 270 9 155 74 268 280 319 580
55 332 60 802 10 1125 -55 354 -163 570 -324 643 -69 32 -182 39 -254 16z"/>
<path d="M8466 7424 c-125 -40 -220 -144 -286 -316 -57 -148 -101 -361 -115
-558 -3 -47 -8 -113 -11 -147 -5 -53 -3 -62 13 -66 17 -4 17 -5 -1 -6 -18 -1
-19 -9 -13 -198 17 -517 100 -824 267 -994 86 -87 149 -113 265 -107 56 3 95
12 130 28 65 31 162 130 202 206 48 90 96 241 89 278 -4 19 -3 26 3 18 14 -23
48 185 58 356 5 92 3 116 -8 123 -11 7 -11 9 4 9 15 0 17 15 17 168 0 405 -57
778 -147 956 l-15 28 -41 -38 -42 -39 39 42 39 42 -19 37 c-30 57 -113 135
-173 162 -70 32 -183 39 -255 16z"/>
<path d="M18120 7524 c-181 -49 -319 -243 -386 -544 -19 -85 -44 -263 -44
-310 0 -7 166 -10 516 -10 l516 0 -6 88 c-16 208 -52 353 -119 490 -77 157
-180 255 -302 287 -72 18 -103 18 -175 -1z"/>
</g>
</svg>
